<svg xmlns="http://www.w3.org/2000/svg" xmlns:xlink="http://www.w3.org/1999/xlink" version="1.1" x="0px" y="0px" viewBox="0 0 100 125" enable-background="new 0 0 100 100" xml:space="preserve"><path d="M41.263,35.176c1.766,0.249,4.605,0.353,7.719,0.353c5.807,0,12.575-0.37,15.133-0.894c0.444-0.091,0.731-0.525,0.639-0.969  c-0.09-0.443-0.528-0.731-0.968-0.639c-3.737,0.765-17.469,1.202-22.296,0.524c-0.446-0.064-0.863,0.252-0.926,0.699  C40.502,34.699,40.815,35.115,41.263,35.176z"/><path d="M70.255,25.312c0.007,0,0.012,0,0.018,0c1.313-0.012,2.571,0.464,3.525,1.376c0.95,0.915,1.49,2.146,1.515,3.468  c0.054,2.724-2.118,4.986-4.842,5.04c-0.659,0.016-1.303-0.105-1.906-0.343c-0.42-0.166-0.899,0.039-1.066,0.461  c-0.167,0.421,0.039,0.898,0.46,1.066c0.769,0.304,1.581,0.457,2.421,0.457c0.04,0,0.082,0,0.122,0  c3.63-0.073,6.524-3.084,6.453-6.714c-0.035-1.759-0.752-3.397-2.021-4.619c-1.27-1.217-2.958-1.872-4.695-1.833  c-0.453,0.008-0.814,0.385-0.804,0.837C69.443,24.954,69.812,25.312,70.255,25.312z"/><path d="M38.553,25.989c0.068,0.295,0.362,0.476,0.657,0.409c0.785-0.184,1.589-0.222,2.387-0.115  c0.743,0.099,1.45,0.316,2.098,0.641c0.079,0.04,0.162,0.058,0.246,0.058c0.199,0,0.391-0.111,0.487-0.301  c0.138-0.27,0.028-0.596-0.242-0.735c-0.664-0.332-1.377-0.561-2.125-0.692c0.026-0.078,0.043-0.163,0.043-0.249  c0-2.472,2.01-4.483,4.481-4.483c2.468,0,4.478,2.011,4.478,4.483c0,0.452,0.368,0.819,0.822,0.819c0.453,0,0.82-0.367,0.82-0.819  c0-3.378-2.746-6.123-6.12-6.123c-3.376,0-6.122,2.745-6.122,6.123c0,0.045,0.007,0.09,0.013,0.133  c-0.508,0.015-1.015,0.076-1.516,0.193C38.666,25.4,38.484,25.694,38.553,25.989z"/><path d="M70.509,67.496c-0.29-0.072-0.589,0.106-0.661,0.4c-0.07,0.293,0.109,0.591,0.402,0.66c0.223,0.055,0.508,0.096,0.818,0.096  c0.947,0,2.145-0.361,2.658-1.714c2.265-8.133,1.15-15.524,1.104-15.818c-0.231-1.933-3.804-2.309-4.517-2.363  c-0.298-0.024-0.565,0.201-0.588,0.502c-0.023,0.303,0.201,0.565,0.502,0.59c1.364,0.105,3.423,0.624,3.517,1.422  c0.014,0.073,1.13,7.466-1.056,15.325C72.199,67.878,70.576,67.51,70.509,67.496z"/><path d="M81.279,47.305c-1.431-5.762-8.887-7.332-12.554-6.894c-0.451,0.054-0.771,0.461-0.72,0.91  c0.054,0.451,0.466,0.774,0.913,0.719c2.327-0.278,9.503,0.578,10.766,5.661c1.753,7.052-0.125,18.248-1.28,21.269  c-1.272,3.319-7.354,3.457-8.796,3.192c-0.447-0.085-0.874,0.211-0.956,0.659c-0.032,0.18-0.002,0.355,0.073,0.508  c-0.069,0.118-0.112,0.255-0.112,0.403L68.512,86.91c-1.72,0.978-9.15,4.838-19.026,4.838c-9.858,0-17.111-3.908-18.771-4.884  l-0.558-35.063c-0.002-0.126-0.033-0.25-0.09-0.362l-1.51-2.926l-0.002-0.523c0.493,0.259,1.547,0.755,2.928,1.063  c3.562,0.804,8.422,1.675,15.421,1.675c1.172,0,2.408-0.024,3.702-0.076c5.336-0.223,9.168-0.891,11.443-1.413  c0.294-0.067,0.479-0.361,0.41-0.656c-0.068-0.295-0.362-0.478-0.655-0.41c-2.23,0.512-5.991,1.168-11.243,1.387  c-8.905,0.364-14.746-0.65-18.839-1.574c-1.706-0.382-2.894-1.093-2.906-1.099c-0.082-0.05-0.174-0.068-0.263-0.072l-0.004-2.032  c-0.002-0.455-0.368-0.821-0.82-0.821c0,0,0,0-0.002,0c-0.453,0.003-0.82,0.37-0.818,0.822l0.008,3.931  c0,0.129,0.031,0.257,0.09,0.374l1.512,2.93l0.561,35.322c0.002,0.019,0.004,0.036,0.006,0.056c0.004,0.034,0.006,0.067,0.013,0.102  c0.007,0.027,0.017,0.052,0.026,0.081c0.007,0.024,0.012,0.046,0.023,0.07c0.01,0.024,0.025,0.048,0.039,0.073  c0.01,0.022,0.022,0.045,0.037,0.067c0.014,0.021,0.034,0.039,0.051,0.061c0.016,0.019,0.031,0.04,0.049,0.058  c0.038,0.037,0.079,0.07,0.124,0.102h0.001c0.336,0.22,8.311,5.375,20.037,5.375c11.717,0,19.935-5.095,20.28-5.312  c0.004,0,0.004-0.005,0.009-0.006c0.027-0.016,0.051-0.037,0.073-0.057c0.017-0.016,0.037-0.028,0.054-0.043  c0.019-0.018,0.033-0.037,0.048-0.057c0.019-0.021,0.039-0.042,0.055-0.066c0.011-0.016,0.022-0.036,0.031-0.055  c0.016-0.027,0.033-0.052,0.046-0.082c0.009-0.018,0.013-0.043,0.02-0.064c0.009-0.027,0.022-0.055,0.028-0.085  c0.005-0.018,0.005-0.039,0.008-0.058c0.004-0.036,0.009-0.069,0.009-0.105c0-0.002,0.002-0.003,0.002-0.008l0.103-13.515  c0.207,0.01,0.423,0.018,0.663,0.018c2.812,0,7.672-0.803,9.024-4.335C81.144,66.396,83.111,54.683,81.279,47.305z"/><path d="M39.245,55.215c0.019,0,0.033,0,0.05,0.003c1.382,0.021,2.965,1.488,3.119,3.634c0.2,2.836,0.229,15.943,0.236,25.558  c0,0.304,0.246,0.547,0.547,0.547c0,0,0,0,0.002,0c0.301,0,0.545-0.244,0.545-0.548c-0.008-15.303-0.085-23.447-0.239-25.633  c-0.179-2.532-2.061-4.621-4.193-4.655c-1.947-0.022-4.066,1.219-4.264,3.648c-0.195,2.391-0.198,13.73-0.175,24.508  c0,0.301,0.243,0.545,0.546,0.545h0.001c0.303,0,0.546-0.246,0.546-0.548c-0.021-10.754-0.017-22.065,0.174-24.415  C36.287,56.036,37.844,55.215,39.245,55.215z"/><path d="M52.629,55.282c-0.01,0-0.018,0-0.028,0c-1.065,0-2.132,0.452-2.931,1.246c-0.823,0.814-1.273,1.919-1.273,3.105  c0,0.756-0.021,2.331-0.048,4.504c-0.061,4.7-0.163,12.567-0.162,20.778c0,0.301,0.246,0.545,0.548,0.545  c0.301,0,0.546-0.244,0.546-0.545c-0.001-8.205,0.1-16.068,0.159-20.766c0.03-2.177,0.049-3.758,0.049-4.516  c0-1.145,0.517-1.898,0.951-2.328c0.587-0.582,1.393-0.928,2.16-0.928c0.007,0,0.013,0,0.021,0c0.736,0.005,3.137,0.25,3.137,3.177  c0,0.912,0.024,2.778,0.057,5.315c0.064,4.826,0.159,12.115,0.177,19.917c0,0.304,0.246,0.547,0.547,0.547h0.002  c0.302-0.002,0.546-0.246,0.546-0.548c-0.019-7.81-0.114-15.105-0.177-19.929c-0.034-2.532-0.058-4.392-0.058-5.302  C56.853,56.425,54.579,55.297,52.629,55.282z"/><path d="M66.036,55.835c0.007,0,0.016,0,0.024,0c0.299,0,0.545-0.24,0.547-0.54c0.002-0.302-0.24-0.549-0.54-0.553  c-0.011,0-0.021,0-0.029,0c-2.057,0-4.018,2.002-4.207,4.306c-0.222,2.74-0.201,12.6-0.157,23.331  c0.002,0.301,0.244,0.544,0.547,0.544c0.002,0,0.002,0,0.002,0c0.302,0,0.545-0.246,0.544-0.548  c-0.04-10.282-0.064-20.542,0.155-23.24C63.063,57.401,64.544,55.835,66.036,55.835z"/><path d="M32.501,35.837c0.32,0.07,0.648,0.12,0.985,0.12c0.032,0,0.063,0,0.093-0.002c1.449-0.025,2.799-0.758,3.612-1.96  c0.255-0.374,0.156-0.885-0.219-1.14c-0.373-0.255-0.884-0.156-1.139,0.22c-0.514,0.759-1.366,1.223-2.283,1.24  c-1.143,0.009-2.178-0.633-2.641-1.673c-0.186-0.415-0.671-0.6-1.083-0.416c-0.415,0.184-0.6,0.671-0.415,1.086  c0.35,0.786,0.913,1.431,1.599,1.89c-0.091,0.13-0.141,0.289-0.141,0.46c0,2.039-1.661,3.698-3.701,3.698  c-2.04,0-3.698-1.659-3.698-3.698c0-1.095,0.478-2.122,1.316-2.83c0.305-0.256,0.38-0.693,0.18-1.038  c-0.375-0.647-0.574-1.428-0.575-2.255c0-1.072,0.383-2.107,1.077-2.917c0.296-0.343,0.256-0.861-0.088-1.157  c-0.345-0.295-0.865-0.256-1.157,0.088c-0.95,1.107-1.473,2.523-1.473,3.986c0.002,0.883,0.173,1.734,0.502,2.493  c-0.911,0.982-1.425,2.273-1.425,3.63c0,2.942,2.396,5.339,5.34,5.339C30.053,41.001,32.406,38.698,32.501,35.837z"/><path d="M28.481,21.051c0.45,0.198,0.928,0.298,1.403,0.298c0.429,0,0.858-0.081,1.268-0.241c1.792-0.698,2.685-2.724,1.985-4.519  c-0.379-0.979-1.172-1.726-2.17-2.054c-0.766-0.252-1.6-0.226-2.35,0.067c-0.282,0.108-0.422,0.428-0.309,0.708  c0.109,0.28,0.426,0.419,0.708,0.31c0.521-0.202,1.078-0.22,1.611-0.046c0.687,0.225,1.231,0.738,1.491,1.412  c0.48,1.231-0.133,2.625-1.364,3.103c-0.594,0.234-1.245,0.219-1.833-0.039c-0.586-0.259-1.036-0.729-1.269-1.327  c-0.11-0.281-0.425-0.421-0.708-0.313c-0.281,0.112-0.419,0.427-0.311,0.71C26.968,19.991,27.627,20.675,28.481,21.051z"/><path d="M63.588,14.042c0.63,0,1.266-0.171,1.84-0.526c0.895-0.557,1.482-1.473,1.616-2.509c0.108-0.8-0.07-1.617-0.496-2.3  c-0.162-0.258-0.499-0.335-0.755-0.174c-0.256,0.16-0.334,0.5-0.173,0.755c0.297,0.475,0.414,1.018,0.339,1.578  c-0.09,0.711-0.496,1.337-1.11,1.722c-1.122,0.696-2.604,0.352-3.303-0.771c-0.339-0.544-0.442-1.186-0.298-1.809  c0.147-0.626,0.526-1.154,1.071-1.493c0.256-0.159,0.333-0.496,0.175-0.752c-0.159-0.258-0.498-0.338-0.753-0.177  c-0.791,0.491-1.345,1.262-1.557,2.17c-0.213,0.912-0.059,1.846,0.433,2.638C61.277,13.456,62.42,14.042,63.588,14.042z"/><path d="M56.914,23.217c0.069,0.028,0.141,0.043,0.213,0.043c0.211-0.002,0.415-0.126,0.502-0.332  c1.036-2.439,3.414-4.044,6.057-4.094c1.505-0.03,2.951,0.428,4.163,1.333c0.241,0.183,0.584,0.133,0.765-0.108  c0.18-0.244,0.131-0.589-0.11-0.768c-1.41-1.054-3.09-1.587-4.841-1.551c-3.073,0.058-5.838,1.926-7.041,4.76  C56.504,22.776,56.635,23.097,56.914,23.217z"/><path d="M48.745,17.204c0.002,0,0.006,0,0.011,0c0.302-0.006,0.541-0.256,0.535-0.557c-0.041-2.072,1.61-3.791,3.684-3.835  c1.005-0.021,1.956,0.353,2.682,1.05c0.723,0.696,1.134,1.634,1.151,2.637c0.008,0.299,0.252,0.538,0.548,0.538  c0.004,0,0.007,0,0.011,0c0.302-0.008,0.541-0.256,0.536-0.558c-0.024-1.295-0.556-2.505-1.49-3.405  c-0.935-0.898-2.161-1.376-3.46-1.352c-2.677,0.054-4.811,2.273-4.756,4.949C48.203,16.968,48.448,17.204,48.745,17.204z"/><path d="M37.774,14.419c0.085,0,0.172-0.015,0.257-0.042c0.431-0.141,0.664-0.603,0.523-1.035c-0.287-0.885-0.217-1.827,0.204-2.656  c0.422-0.831,1.143-1.451,2.029-1.74c0.885-0.291,1.83-0.217,2.66,0.204c0.831,0.422,1.448,1.141,1.738,2.024  c0.142,0.43,0.604,0.666,1.035,0.524c0.43-0.141,0.665-0.605,0.524-1.035c-0.427-1.3-1.333-2.358-2.556-2.978  c-1.222-0.62-2.613-0.725-3.91-0.299c-1.307,0.427-2.365,1.336-2.984,2.559c-0.618,1.219-0.725,2.608-0.298,3.909  C37.108,14.2,37.429,14.419,37.774,14.419z"/><text x="0" y="115" fill="#000000" font-size="5px" font-weight="bold" font-family="'Helvetica Neue', Helvetica, Arial-Unicode, Arial, Sans-serif">Created by António M. Garcia</text><text x="0" y="120" fill="#000000" font-size="5px" font-weight="bold" font-family="'Helvetica Neue', Helvetica, Arial-Unicode, Arial, Sans-serif">from the Noun Project</text></svg>