<?xml version="1.0" encoding="utf-8"?>
<!-- Generator: Adobe Illustrator 19.2.0, SVG Export Plug-In . SVG Version: 6.00 Build 0)  -->
<svg version="1.1" id="Layer_1" xmlns="http://www.w3.org/2000/svg" xmlns:xlink="http://www.w3.org/1999/xlink" x="0px" y="0px"
	 viewBox="0 0 115 30.5" style="enable-background:new 0 0 115 30.5;" xml:space="preserve">
<style type="text/css">
	.st0{fill:#FFFFFF;}
</style>
<path class="st0" d="M109.4,25.4c0-0.4-0.3-0.7-0.7-0.7l-23.3,0c-0.1-0.3-0.1-0.6-0.2-1c0.1,0,0.3,0,0.4,0c2.7,0,5.2-0.9,7.3-2.1
	l19,0c0.4,0,0.7-0.3,0.7-0.7c0-0.4-0.3-0.7-0.7-0.7l-16.8,0c2.8-2.1,4.7-4.3,4.8-4.5c0-0.1,0.1-0.1,0.1-0.2l13.4,0
	c0.4,0,0.7-0.3,0.7-0.7c0-0.4-0.3-0.7-0.7-0.7l-13.4,0c0-0.1-0.1-0.1-0.1-0.2c0,0-1.9-2.3-4.8-4.5l16.9,0c0.4,0,0.7-0.3,0.7-0.7
	c0-0.4-0.3-0.7-0.7-0.7l-19.1,0c-2.1-1.2-4.6-2.1-7.3-2.1c-0.2,0-0.3,0-0.4,0c0.1-0.4,0.2-0.7,0.2-1l23.3,0c0.4,0,0.7-0.3,0.7-0.7
	c0-0.4-0.3-0.7-0.7-0.7l-23.1,0c-0.1-0.5-0.4-1-0.9-1.2C84.4,2.5,77.9,0.1,72.2,2c-1.8-0.5-6.5-1.5-10.8-0.1c-0.1,0-0.2-0.1-0.3-0.1
	c-0.3-0.1-5.9-1.6-11,0.1c-0.2-0.3-0.5-0.5-0.8-0.6C49.1,1.3,43.5,0.1,38.7,2c-0.1-0.6-0.5-1-1.1-1.1C37.3,0.9,31.7,0,27,2.2
	c0-0.3,0-0.4,0-0.5c-0.1-0.6-0.6-1.2-1.2-1.2c-0.3,0-8.2-0.9-12.7,3.7c-3.3,3.3-2.9,7.3-2.4,9.6c-0.4,0-1.1,0.1-2.3,0.1
	C3.8,14,1.1,16.4,1,16.5c-0.6,0.5-0.6,1.4-0.1,2c0,0,0,0,0,0c0.5,0.5,1.4,0.5,1.9,0C3,18.5,5,16.7,8.4,16.6c0.8,0,1.5,0,2.1-0.1
	c-0.5,2.3-0.6,6.1,2.5,9.2c4.5,4.5,12.4,3.7,12.7,3.7c0.6-0.1,1.2-0.6,1.2-1.2c0,0,0-0.2,0-0.5c4.7,2.2,10.2,1.3,10.5,1.3
	c0.6-0.1,1-0.6,1.1-1.1c4.8,2,10.4,0.8,10.7,0.7c0.4-0.1,0.6-0.3,0.8-0.6c5,1.8,10.7,0.2,11,0.1c0.1,0,0.2-0.1,0.3-0.1
	c4.3,1.4,9,0.4,10.8-0.1c5.7,1.9,12.2-0.5,12.5-0.7c0.5-0.2,0.8-0.6,0.9-1.2l23.1,0C109,26.1,109.4,25.8,109.4,25.4z M85.6,8.9
	c0.4,0,0.8,0.1,1.2,0.1c0.9,0.1,1.8,0.3,2.6,0.6c3.3,1.2,6,3.7,7.4,5.1c0.1,0.1,0.2,0.2,0.2,0.2c-0.1,0.1-0.1,0.1-0.2,0.2
	c-1.4,1.4-4.1,3.9-7.4,5.1c-0.8,0.3-1.7,0.5-2.6,0.6c-0.4,0-0.8,0.1-1.2,0.1c-0.5,0-1-0.1-1.4-0.1c-0.8-1.9-1.9-4-3.6-5.7
	c-0.1-0.1-0.2-0.1-0.2-0.2c1.8-1.7,3-3.9,3.9-5.9C84.6,9,85.1,8.9,85.6,8.9z M82.6,4.9C82.5,5.4,82.3,6,82,6.7
	c-0.4,1.3-1.1,2.9-2.1,4.4c-0.8,0.7-1.5,1.5-2,2.2c0,0.1-0.1,0.1-0.1,0.1c-0.4,0.3-0.8,0.6-1.2,0.8c-0.6,0.4-1.3,0.6-1.9,0.7
	c-0.2,0.1-0.5,0.1-0.7,0.2c-1.1,0.2-2.1,0.1-3-0.2c-0.7-0.2-1.2-0.4-1.8-0.6c0.6-0.7,1.2-1.4,1.7-2.2c1.8-3,2.5-6.2,2.8-7.7
	C77.1,3.6,80.8,4.4,82.6,4.9z M68.5,4.1c1,0.1,1.8,0.3,2.4,0.4C70.8,5,70.7,5.5,70.6,6c-0.5,1.7-1.3,4-2.8,5.9
	c-0.4,0.5-0.9,0.9-1.4,1.4c-0.2,0.2-0.5,0.4-0.7,0.6c-0.2,0.1-0.4,0.2-0.6,0.3c-1,0.5-1.9,0.7-2.8,0.8c-0.3,0-0.6,0-0.9,0
	c-1.3-0.1-2.4-0.5-3.2-0.8c0.5-0.5,0.9-1.1,1.3-1.7c1.8-2.8,2.5-6,2.7-7.8C64.2,3.9,66.6,3.9,68.5,4.1z M38.6,24.8
	c-0.2-2.2-0.9-5.2-2.6-7.8c1.9,0.5,4.6,0.9,7.3-0.4c0,0,0,0,0,0c0.1,0.1,0.2,0.1,0.2,0.2c3.1,2.5,3.9,7.1,4.1,9.3
	c-0.2,0-0.5,0.1-0.8,0.1C44.7,26.3,41.3,26.3,38.6,24.8z M57.6,4c0.6,0.1,1.2,0.1,1.6,0.2c-0.1,0.7-0.3,1.7-0.6,2.7
	c-0.4,1.3-0.9,2.7-1.7,4c-0.6,0.9-1.3,1.7-2.1,2.4c-0.1,0.1-0.1,0.1-0.2,0.2c-0.1,0.1-0.3,0.2-0.4,0.2c-2.9,1.8-5.9,0.9-7.5,0.2
	c0.3-0.4,0.7-0.8,0.9-1.2c1.8-2.7,2.4-5.8,2.7-7.8C52.7,3.8,55.5,3.8,57.6,4z M46.8,3.8c0.3,0,0.6,0.1,0.8,0.1
	c-0.2,2.2-1,6.8-4.1,9.3c-0.1,0.1-0.2,0.1-0.3,0.2c-0.5,0.4-1.1,0.7-1.6,0.9c-1.9,0.7-3.7,0.4-5,0c-0.5-0.2-0.9-0.3-1.2-0.5
	c0.2-0.3,0.4-0.5,0.6-0.8c1.7-2.5,2.4-5.6,2.6-7.8C41.3,3.6,44.7,3.6,46.8,3.8z M35.9,3.6C35.9,3.6,35.9,3.6,35.9,3.6
	c-0.1,2.2-0.6,6.7-3.5,9.3c0,0-0.1,0.1-0.1,0.1c-0.2,0.2-0.4,0.3-0.6,0.5c-2.8,1.9-6,1-7.3,0.5c0-0.1-0.1-0.3-0.1-0.5
	c1.8-2.4,2.5-5.5,2.7-7.8C29.8,3.4,33.9,3.4,35.9,3.6z M13.6,13.9c-0.1-0.2-0.1-0.5-0.2-0.7c-0.4-1.7-0.7-4.7,1.6-7
	c2.7-2.7,7.2-2.9,9.3-2.9c0,0.3,0,0.6,0,0.9l0,0c0,0.2,0,0.3,0,0.5c0,0.2,0,0.3,0,0.5c0,0.1,0,0.3,0,0.5c0,0.2,0,0.4-0.1,0.7
	C24,6.4,24,6.5,24,6.7c0,0.2-0.1,0.5-0.1,0.7c0,0.2-0.1,0.3-0.1,0.5c-0.1,0.2-0.1,0.5-0.2,0.7c-0.1,0.2-0.1,0.3-0.2,0.5
	c-0.1,0.2-0.2,0.5-0.3,0.7c-0.1,0.2-0.1,0.3-0.2,0.5c-0.1,0.3-0.3,0.5-0.4,0.8c-0.1,0.1-0.1,0.3-0.2,0.4c-0.3,0.4-0.5,0.7-0.8,1
	c-0.4,0.4-0.7,0.7-1.1,0.9C17.6,15,14.7,14.3,13.6,13.9z M15,23.8c-2.3-2.3-2-5.4-1.6-7c1.6,0.4,4.2,0.8,6.9-0.2
	c0.4,0.2,0.8,0.5,1.1,0.9c0.3,0.3,0.6,0.7,0.8,1c0.1,0.1,0.1,0.3,0.2,0.4c0.2,0.2,0.3,0.5,0.4,0.8c0.1,0.2,0.1,0.3,0.2,0.5
	c0.1,0.3,0.2,0.5,0.3,0.8c0.1,0.2,0.1,0.3,0.2,0.5c0.1,0.3,0.2,0.5,0.2,0.8c0,0.2,0.1,0.3,0.1,0.5c0.1,0.3,0.1,0.5,0.1,0.8
	c0,0.1,0,0.3,0.1,0.4c0,0.3,0.1,0.5,0.1,0.7c0,0.1,0,0.3,0,0.4c0,0.2,0,0.4,0,0.5c0,0.2,0,0.3,0,0.5c0,0,0,0,0,0c0,0.3,0,0.6,0,0.9
	C22.1,26.7,17.6,26.5,15,23.8z M35.9,26.4c-2,0.1-6.1,0.1-8.9-1.9c-0.2-2.3-0.8-5.3-2.6-7.7c1.7,0.5,4.5,1,7.3-0.2
	c0.2,0.1,0.4,0.3,0.6,0.5c0,0,0.1,0,0.1,0.1l0.3,0.3c0.3,0.3,0.6,0.7,0.9,1.1c1.2,1.8,1.8,3.9,2.1,5.7C35.8,25,35.9,25.7,35.9,26.4
	C35.9,26.3,35.9,26.4,35.9,26.4z M50.3,25c-0.3-2-0.9-5.2-2.7-7.8c1.8,0.5,4.1,0.7,6.5-0.3c0.2-0.1,0.5-0.2,0.7-0.3
	c0.9,0.7,1.6,1.5,2.2,2.5c0.8,1.3,1.3,2.7,1.7,3.9c0.3,1,0.5,2,0.6,2.7c-0.4,0.1-1,0.2-1.6,0.2C55.6,26.2,52.7,26.2,50.3,25z
	 M62,25.3c-0.3-1.8-1-5-2.7-7.8c1.6,0.4,3.6,0.5,5.7-0.2c0.5-0.2,0.9-0.4,1.4-0.6c0.2,0.2,0.5,0.3,0.7,0.6c0.3,0.3,0.5,0.5,0.7,0.8
	c1.5,1.8,2.3,4.1,2.8,5.8c0.2,0.6,0.3,1.1,0.4,1.5c-0.6,0.1-1.5,0.3-2.4,0.4C66.6,26,64.2,26.1,62,25.3z M73.8,25.5
	c-0.2-1.4-0.9-4.7-2.8-7.7c1.3,0.3,2.8,0.3,4.4-0.1c0.9-0.2,1.8-0.5,2.7-1c0,0,0,0,0,0c0.2,0.2,0.4,0.3,0.5,0.5
	c0.5,0.5,0.9,1.1,1.3,1.6c1,1.5,1.7,3,2.2,4.4c0.2,0.7,0.4,1.4,0.6,1.9C80.8,25.6,77.1,26.4,73.8,25.5z"/>
</svg>
