<svg xmlns="http://www.w3.org/2000/svg" xmlns:xlink="http://www.w3.org/1999/xlink" version="1.1" x="0px" y="0px" viewBox="0 0 48 60" enable-background="new 0 0 48 48" xml:space="preserve"><g><path d="M11.972,19.533c-0.382,0-0.747-0.22-0.913-0.591l-0.885-1.973c-0.021-0.047-0.039-0.097-0.052-0.146   c-0.482-1.305-0.227-2.83,0.687-4.195c-0.272-0.692-0.54-1.679-0.448-2.744c0.08-0.928-0.176-1.425-0.684-2.415   C9.48,7.087,9.263,6.664,9.036,6.157C8.997,6.07,8.971,5.979,8.958,5.886L7.719,3.124c-0.226-0.504,0-1.096,0.503-1.322   l3.822-1.715c0.243-0.108,0.519-0.115,0.765-0.022c0.248,0.094,0.448,0.283,0.557,0.525l1.242,2.77   c0.062,0.068,0.114,0.146,0.151,0.23c0.228,0.507,0.4,0.951,0.554,1.351c0.401,1.037,0.602,1.557,1.348,2.115   c0.854,0.638,1.414,1.495,1.75,2.16c1.628,0.226,2.937,1.049,3.588,2.277c0.028,0.042,0.052,0.088,0.074,0.135l2.91,6.49   c0.226,0.504,0,1.096-0.503,1.322c-0.504,0.224-1.096,0-1.322-0.503l-2.868-6.396c-0.011-0.02-0.022-0.04-0.032-0.06   c-0.38-0.775-1.336-1.27-2.559-1.322c-0.391-0.017-0.737-0.261-0.884-0.624c-0.187-0.463-0.612-1.322-1.352-1.875   c-1.208-0.903-1.582-1.873-2.016-2.997c-0.118-0.305-0.247-0.638-0.406-1.009c-0.06-0.067-0.11-0.143-0.147-0.226l-0.944-2.105   L9.953,3.218l0.945,2.108c0.038,0.084,0.063,0.173,0.077,0.263c0.169,0.362,0.332,0.678,0.479,0.966   c0.551,1.073,1.027,1.999,0.897,3.5c-0.08,0.923,0.28,1.81,0.501,2.255c0.174,0.352,0.127,0.773-0.122,1.077   c-0.773,0.947-1.04,1.992-0.714,2.794c0.009,0.021,0.016,0.042,0.023,0.063l0.843,1.88c0.226,0.504,0,1.096-0.503,1.322   C12.248,19.504,12.108,19.532,11.972,19.533z"/><path d="M34.812,19.124c-0.104,0-0.211-0.017-0.315-0.051c-0.281-0.094-0.509-0.309-0.617-0.584s-0.092-0.586,0.051-0.847   c0.415-0.759,0.27-1.827-0.391-2.857c-0.212-0.33-0.211-0.754,0.003-1.083c0.217-0.336,0.727-1.222,0.754-2.185   c0.044-1.505,0.621-2.369,1.289-3.37c0.184-0.273,0.384-0.573,0.597-0.92c0.021-0.083,0.055-0.165,0.101-0.242L37.46,5   l-1.883-1.118l-1.178,1.982c-0.051,0.087-0.113,0.163-0.185,0.228c-0.194,0.341-0.356,0.65-0.505,0.933   c-0.56,1.068-1.043,1.991-2.348,2.75c-0.832,0.485-1.366,1.355-1.557,1.707c-0.187,0.344-0.547,0.546-0.951,0.521   c-1.212-0.088-2.224,0.294-2.69,1.022c-0.013,0.02-0.025,0.039-0.039,0.057l-1.995,3.357c-0.283,0.475-0.897,0.63-1.371,0.349   c-0.475-0.282-0.631-0.896-0.349-1.371l2.048-3.447c0.027-0.045,0.057-0.087,0.09-0.127c0.788-1.146,2.181-1.813,3.821-1.851   c0.409-0.62,1.062-1.406,1.985-1.945c0.808-0.469,1.067-0.964,1.583-1.95c0.198-0.378,0.42-0.8,0.702-1.276   c0.054-0.089,0.118-0.168,0.192-0.234l1.536-2.585c0.281-0.475,0.896-0.632,1.37-0.349l3.602,2.139   c0.475,0.282,0.631,0.896,0.35,1.37l-1.552,2.615c-0.021,0.086-0.056,0.17-0.103,0.249c-0.284,0.479-0.55,0.876-0.788,1.233   c-0.616,0.923-0.926,1.387-0.952,2.316c-0.031,1.069-0.41,2.019-0.759,2.675c0.756,1.471,0.832,3.026,0.19,4.271   C35.567,18.893,35.202,19.124,34.812,19.124z"/><path d="M32.555,48H11.704c-0.497,0-0.918-0.365-0.99-0.856L6.592,18.668c-0.042-0.287,0.044-0.578,0.234-0.797   c0.19-0.22,0.466-0.346,0.756-0.346h29.094c0.29,0,0.566,0.126,0.756,0.346c0.19,0.219,0.275,0.51,0.233,0.797l-4.121,28.476   C33.474,47.635,33.052,48,32.555,48z M12.57,46h19.12l3.831-26.475H8.737L12.57,46z"/><path d="M37.062,41.011c-6.485,0-15.496-12.844-16.587-14.436c-0.313-0.455-0.196-1.078,0.259-1.39   c0.456-0.313,1.078-0.197,1.39,0.259c4.142,6.038,12.108,15.014,15.863,13.386c0.772-0.335,1.206-0.813,1.363-1.507   c0.637-2.801-3.145-7.933-4.654-9.674c-0.362-0.417-0.317-1.049,0.1-1.41c0.417-0.363,1.049-0.316,1.41,0.1   c0.624,0.719,6.067,7.148,5.095,11.428c-0.298,1.312-1.169,2.313-2.519,2.898C38.235,40.902,37.659,41.011,37.062,41.011z"/></g><text x="0" y="63" fill="#000000" font-size="5px" font-weight="bold" font-family="'Helvetica Neue', Helvetica, Arial-Unicode, Arial, Sans-serif">Created by Creative Stall</text><text x="0" y="68" fill="#000000" font-size="5px" font-weight="bold" font-family="'Helvetica Neue', Helvetica, Arial-Unicode, Arial, Sans-serif">from the Noun Project</text></svg>