<svg xmlns="http://www.w3.org/2000/svg" xmlns:xlink="http://www.w3.org/1999/xlink" version="1.1" x="0px" y="0px" viewBox="0 0 100 125" enable-background="new 0 0 100 100" xml:space="preserve"><path fill="#000000" d="M64.944,89.436V41.349c0,0,0.229-4.468-3.449-8.511c0,0-5.748-18.086-5.978-21.171  c0,0,1.494-1.064-0.23-2.66V3.953h0.785c0,0-0.252-2.318-1.747-2.782h-4.326h-4.322c-1.497,0.464-1.748,2.782-1.748,2.782h0.784  v5.054c-1.725,1.596-0.23,2.66-0.23,2.66c-0.23,3.085-5.978,21.171-5.978,21.171c-3.679,4.042-3.449,8.511-3.449,8.511v48.087  c-0.459,5.107,2.529,7.436,2.529,7.436H50h12.415C62.415,96.871,65.403,94.543,64.944,89.436z M49.793,83.19  c-5.103,0-9.238-8.02-9.238-17.916c0-9.896,4.136-17.916,9.238-17.916c5.103,0,9.239,8.02,9.239,17.916  C59.032,75.171,54.896,83.19,49.793,83.19z"/><text x="0" y="115" fill="#000000" font-size="5px" font-weight="bold" font-family="'Helvetica Neue', Helvetica, Arial-Unicode, Arial, Sans-serif">Created by Andrey Vasiliev</text><text x="0" y="120" fill="#000000" font-size="5px" font-weight="bold" font-family="'Helvetica Neue', Helvetica, Arial-Unicode, Arial, Sans-serif">from the Noun Project</text></svg>